<svg width="36" height="36" viewBox="0 0 36 36" fill="none" xmlns="http://www.w3.org/2000/svg">
<path d="M28.0479 5C30.2235 5.00019 31.9873 6.76471 31.9873 8.94043V13.7168C31.987 14.2136 31.5838 14.6172 31.0869 14.6172H25.9072V31.0869C25.907 31.4197 25.7226 31.7257 25.4287 31.8818C25.1348 32.0377 24.7786 32.0182 24.5029 31.832L21.9053 30.0752L19.3076 31.832L19.1895 31.8994C18.9048 32.0347 18.5654 32.0122 18.2988 31.832L15.7021 30.0752L13.1045 31.832L12.9863 31.8994C12.7017 32.0348 12.3623 32.0122 12.0957 31.832L9.46289 30.0508L6.35352 31.8643C6.0753 32.0265 5.73149 32.0275 5.45215 31.8672C5.17271 31.7067 5.00003 31.4092 5 31.0869V8.90039C5.00021 6.74665 6.74661 5.00098 8.90039 5.00098H27.6123C27.6575 5.00099 27.7017 5.00528 27.7451 5.01172C27.8451 5.00411 27.946 5.00001 28.0479 5ZM8.90039 6.80078C7.74072 6.80078 6.80001 7.74077 6.7998 8.90039V29.5205L9.04492 28.21C9.34373 28.0359 9.7165 28.0484 10.0029 28.2422L12.6006 30L15.1973 28.2422C15.5019 28.0362 15.9015 28.0361 16.2061 28.2422L18.8037 30L21.4004 28.2422C21.7049 28.0362 22.1046 28.0363 22.4092 28.2422L24.1064 29.3906V9.04883C24.1064 9.04101 24.1072 9.03316 24.1074 9.02539V8.94043C24.1074 8.15174 24.34 7.41695 24.7393 6.80078H8.90039ZM20.665 24.1064C21.162 24.1065 21.5653 24.5099 21.5654 25.0068C21.5654 25.5039 21.1621 25.9072 20.665 25.9072H10.2432C9.74617 25.9072 9.34277 25.5038 9.34277 25.0068C9.34294 24.51 9.74627 24.1065 10.2432 24.1064H20.665ZM20.665 21.501C21.1619 21.501 21.5652 21.9045 21.5654 22.4014C21.5654 22.8984 21.1621 23.3017 20.665 23.3018H10.2432C9.74617 23.3017 9.34277 22.8984 9.34277 22.4014C9.34297 21.9045 9.74629 21.5011 10.2432 21.501H20.665ZM14.8037 10.2266C15.3364 10.2265 16.5065 10.1377 17.4619 10.376C17.9676 10.5022 18.5188 10.7399 18.9443 11.2041C19.386 11.6861 19.6074 12.3207 19.6074 13.0713C19.6074 13.6322 19.4802 14.1361 19.2148 14.5635C18.9499 14.9901 18.5829 15.2837 18.1943 15.4814C17.452 15.859 16.5644 15.9199 15.8887 15.9199C15.3916 15.9199 14.9883 15.5166 14.9883 15.0195C14.9884 14.5225 15.3917 14.1191 15.8887 14.1191C16.5141 14.1191 17.0362 14.0508 17.3779 13.877C17.5312 13.799 17.6253 13.7112 17.6855 13.6143C17.7453 13.518 17.8076 13.3552 17.8076 13.0713C17.8076 12.6898 17.704 12.5147 17.6172 12.4199C17.5141 12.3075 17.3329 12.1998 17.0254 12.123C16.5222 11.9976 15.9565 12.0063 15.3809 12.0186L14.8037 12.0273H14.7275V18.9277L14.7227 19.0195C14.6767 19.4735 14.2932 19.8281 13.8271 19.8281C13.3611 19.8281 12.9776 19.4735 12.9316 19.0195L12.9268 18.9277V18.0674H12.2002C11.7033 18.0674 11.3 17.6638 11.2998 17.167C11.2998 16.6699 11.7031 16.2666 12.2002 16.2666H12.9268V15.9238H12.2002C11.7032 15.9238 11.2999 15.5204 11.2998 15.0234C11.2998 14.5264 11.7031 14.123 12.2002 14.123H12.9268V11.127C12.9269 10.661 13.2815 10.2774 13.7354 10.2314L13.8271 10.2266H14.8037ZM17.625 16.2666C18.1219 16.2668 18.5244 16.67 18.5244 17.167C18.5242 17.6637 18.1218 18.0672 17.625 18.0674H15.8877C15.3909 18.0673 14.9875 17.6638 14.9873 17.167C14.9873 16.67 15.3907 16.2667 15.8877 16.2666H17.625ZM28.0479 6.80078C26.8662 6.8009 25.9082 7.75879 25.9082 8.94043V12.8164H30.1875V8.94043C30.1875 7.75882 29.2294 6.80097 28.0479 6.80078Z" fill="#003B47"/>
</svg>
