<svg width="36" height="36" viewBox="0 0 36 36" fill="none" xmlns="http://www.w3.org/2000/svg">
<path d="M27.9004 6C29.502 6 30.8008 7.29877 30.8008 8.90039V22.9004C30.8008 24.502 29.502 25.8008 27.9004 25.8008H18.7949C18.7985 25.8335 18.8008 25.8667 18.8008 25.9004V28H21.9004C22.3974 28 22.8008 28.4033 22.8008 28.9004C22.8008 29.3974 22.3974 29.8008 21.9004 29.8008H13.9004C13.4033 29.8008 13 29.3974 13 28.9004C13 28.4033 13.4033 28 13.9004 28H17V25.9004C17 25.8667 17.0023 25.8335 17.0059 25.8008H7.90039C6.29876 25.8008 5 24.502 5 22.9004V8.90039C5 7.29876 6.29877 6 7.90039 6H27.9004ZM7.90039 7.80078C7.29288 7.80078 6.80078 8.29288 6.80078 8.90039V22.9004C6.80078 23.5079 7.29288 24 7.90039 24H27.9004C28.5079 24 29 23.5079 29 22.9004V8.90039C29 8.29288 28.5079 7.80078 27.9004 7.80078H7.90039ZM23.9004 10.0996C24.9497 10.0996 25.8008 10.9507 25.8008 12V19C25.8008 20.0493 24.9497 20.9004 23.9004 20.9004H11.9004C10.8511 20.9004 10 20.0493 10 19V12C10 10.9507 10.851 10.0996 11.9004 10.0996H23.9004ZM11.9004 11.9004C11.8452 11.9004 11.8008 11.9448 11.8008 12V19C11.8008 19.0552 11.8452 19.0996 11.9004 19.0996H23.9004C23.9556 19.0996 24 19.0552 24 19V12C24 11.9448 23.9556 11.9004 23.9004 11.9004H11.9004ZM19.9004 15.9199C20.3974 15.9199 20.8007 16.3233 20.8008 16.8203C20.8008 17.3174 20.3974 17.7207 19.9004 17.7207H13.9004C13.4034 17.7207 13 17.3173 13 16.8203C13.0001 16.3233 13.4034 15.92 13.9004 15.9199H19.9004ZM21.9512 13.0996C22.4482 13.0996 22.8515 13.503 22.8516 14C22.8516 14.4971 22.4482 14.9004 21.9512 14.9004H13.9004C13.4034 14.9003 13 14.497 13 14C13 13.503 13.4034 13.0997 13.9004 13.0996H21.9512Z" fill="#003B47"/>
</svg>
