<svg width="36" height="36" viewBox="0 0 36 36" fill="none" xmlns="http://www.w3.org/2000/svg">
<path d="M17.9004 1C27.234 1 34.8008 8.56678 34.8008 17.9004C34.8008 27.234 27.234 34.8008 17.9004 34.8008C8.56678 34.8008 1 27.234 1 17.9004C1 8.56678 8.56678 1 17.9004 1ZM17.9004 2.80078C9.56089 2.80078 2.80078 9.56089 2.80078 17.9004C2.80078 26.2399 9.56089 33 17.9004 33C26.2399 33 33 26.2399 33 17.9004C33 9.56089 26.2399 2.80078 17.9004 2.80078ZM16.1504 10.0156C17.2462 10.0157 19.1785 9.89335 20.7812 10.3291C21.6076 10.5538 22.4402 10.9458 23.0654 11.6494C23.705 12.3692 24.0507 13.3273 24.0508 14.5244C24.0508 15.5528 23.8312 16.4151 23.375 17.1064C22.9157 17.8024 22.2703 18.2436 21.5654 18.5205C20.2243 19.0473 18.4986 19.0332 17.0254 19.0332C16.5285 19.0332 16.1252 18.6307 16.125 18.1338C16.1251 17.6368 16.5284 17.2334 17.0254 17.2334C18.6146 17.2334 19.9515 17.2201 20.9072 16.8447C21.3507 16.6705 21.6625 16.4343 21.873 16.1152C22.0866 15.7916 22.25 15.3002 22.25 14.5244C22.2499 13.6919 22.0195 13.1831 21.7197 12.8457C21.4055 12.4921 20.9346 12.2354 20.3096 12.0654C19.3343 11.8002 18.2086 11.7923 17.1621 11.8047L16.1504 11.8154H15.3008V24.9004C15.3008 25.3974 14.8974 25.8008 14.4004 25.8008C13.9033 25.8008 13.5 25.3974 13.5 24.9004V22.6436H12.6504C12.1534 22.6436 11.7501 22.2401 11.75 21.7432C11.75 21.2461 12.1533 20.8428 12.6504 20.8428H13.5V19.0342H12.6504C12.1533 19.0342 11.75 18.6308 11.75 18.1338C11.7501 17.6368 12.1534 17.2334 12.6504 17.2334H13.5V10.915C13.5003 10.4183 13.9035 10.0157 14.4004 10.0156H16.1504ZM19.6504 20.8428C20.1474 20.8428 20.5508 21.2461 20.5508 21.7432C20.5505 22.24 20.1473 22.6436 19.6504 22.6436H17.0254C16.5285 22.6436 16.1253 22.24 16.125 21.7432C16.125 21.2461 16.5283 20.8428 17.0254 20.8428H19.6504Z" fill="#003B47"/>
</svg>
