<svg width="36" height="36" viewBox="0 0 36 36" fill="none" xmlns="http://www.w3.org/2000/svg">
<path d="M20.002 27.1001C20.4988 27.1003 20.9023 27.5036 20.9023 28.0005C20.9021 28.4972 20.4987 28.9007 20.002 28.9009H6.00195C5.50503 28.9009 5.10177 28.4974 5.10156 28.0005C5.10156 27.5034 5.5049 27.1001 6.00195 27.1001H20.002ZM30.002 27.1001C30.4988 27.1003 30.9023 27.5036 30.9023 28.0005C30.9021 28.4972 30.4987 28.9007 30.002 28.9009H23.002C22.505 28.9009 22.1018 28.4974 22.1016 28.0005C22.1016 27.5034 22.5049 27.1001 23.002 27.1001H30.002ZM28.002 7.1001C29.6034 7.10031 30.9023 8.39899 30.9023 10.0005V22.0005C30.9021 23.6018 29.6033 24.9007 28.002 24.9009H8.00195C6.40046 24.9009 5.10177 23.6019 5.10156 22.0005V10.0005C5.10156 8.39886 6.40033 7.1001 8.00195 7.1001H28.002ZM8.00195 8.90088C7.39444 8.90088 6.90234 9.39298 6.90234 10.0005V22.0005C6.90255 22.6078 7.39457 23.1001 8.00195 23.1001H28.002C28.6092 23.0999 29.1014 22.6077 29.1016 22.0005V10.0005C29.1016 9.39311 28.6093 8.90109 28.002 8.90088H8.00195ZM27.002 17.1001C27.4988 17.1003 27.9023 17.5036 27.9023 18.0005V19.0005C27.9021 20.6018 26.6033 21.9007 25.002 21.9009H24.002C23.505 21.9009 23.1018 21.4974 23.1016 21.0005C23.1016 20.5034 23.5049 20.1001 24.002 20.1001H25.002C25.6092 20.0999 26.1014 19.6077 26.1016 19.0005V18.0005C26.1016 17.5034 26.5049 17.1001 27.002 17.1001ZM18.002 12.1001C20.1557 12.1003 21.9023 13.8467 21.9023 16.0005C21.9021 18.1541 20.1556 19.9007 18.002 19.9009C15.8482 19.9009 14.1018 18.1542 14.1016 16.0005C14.1016 13.8466 15.848 12.1001 18.002 12.1001ZM18.002 13.9009C16.8422 13.9009 15.9023 14.8407 15.9023 16.0005C15.9026 17.1601 16.8423 18.1001 18.002 18.1001C19.1614 18.0999 20.1014 17.16 20.1016 16.0005C20.1016 14.8408 19.1616 13.9011 18.002 13.9009ZM12.002 10.1001C12.4988 10.1003 12.9023 10.5036 12.9023 11.0005C12.9021 11.4972 12.4987 11.9007 12.002 11.9009H11.002C10.3944 11.9009 9.90234 12.393 9.90234 13.0005V14.0005C9.90213 14.4972 9.4987 14.9007 9.00195 14.9009C8.50503 14.9009 8.10177 14.4974 8.10156 14.0005V13.0005C8.10156 11.3989 9.40033 10.1001 11.002 10.1001H12.002Z" fill="#003B47"/>
</svg>
