<svg width="36" height="36" viewBox="0 0 36 36" fill="none" xmlns="http://www.w3.org/2000/svg">
<path d="M26 32H10C8.3 32 7 30.7 7 29V7C7 5.3 8.3 4 10 4H26C27.7 4 29 5.3 29 7V29C29 30.7 27.7 32 26 32ZM10 5.8C9.3 5.8 8.8 6.3 8.8 7V29C8.8 29.7 9.3 30.2 10 30.2H26C26.7 30.2 27.2 29.7 27.2 29V7C27.2 6.3 26.7 5.8 26 5.8H10Z" fill="#003B47"/>
<path d="M24.6984 25.7001H11.2984C10.7984 25.7001 10.3984 25.3001 10.3984 24.8001C10.3984 24.3001 10.7984 23.9001 11.2984 23.9001H24.7984C25.2984 23.9001 25.6984 24.3001 25.6984 24.8001C25.6984 25.3001 25.1984 25.7001 24.6984 25.7001ZM24.6984 21.4001H11.2984C10.7984 21.4001 10.3984 21.0001 10.3984 20.5001C10.3984 20.0001 10.7984 19.6001 11.2984 19.6001H24.7984C25.2984 19.6001 25.6984 20.0001 25.6984 20.5001C25.6984 21.0001 25.1984 21.4001 24.6984 21.4001ZM24.6984 17.1001H11.2984C10.7984 17.1001 10.3984 16.7001 10.3984 16.2001C10.3984 15.7001 10.7984 15.3001 11.2984 15.3001H24.7984C25.2984 15.3001 25.6984 15.7001 25.6984 16.2001C25.6984 16.7001 25.1984 17.1001 24.6984 17.1001ZM19.1984 11.4001H11.2984C10.7984 11.4001 10.3984 11.0001 10.3984 10.5001C10.3984 10.0001 10.7984 9.6001 11.2984 9.6001H19.1984C19.6984 9.6001 20.0984 10.0001 20.0984 10.5001C20.0984 11.0001 19.6984 11.4001 19.1984 11.4001Z" fill="#003B47"/>
</svg>
