<svg width="36" height="36" viewBox="0 0 36 36" fill="none" xmlns="http://www.w3.org/2000/svg">
<path d="M26 30.2002V32H10V30.2002H26ZM27.2002 29V7C27.2002 6.33726 26.6627 5.7998 26 5.7998H10C9.33726 5.7998 8.7998 6.33726 8.7998 7V29C8.7998 29.6627 9.33726 30.2002 10 30.2002V32L9.8457 31.9961C8.31166 31.9184 7.08163 30.6883 7.00391 29.1543L7 29V7C7 5.34315 8.34315 4 10 4H26C27.6569 4 29 5.34315 29 7V29L28.9961 29.1543C28.9184 30.6883 27.6883 31.9184 26.1543 31.9961L26 32V30.2002C26.6627 30.2002 27.2002 29.6627 27.2002 29Z" fill="#003B47"/>
<path d="M13.1763 23.3672C13.5258 23.0137 14.0953 23.0109 14.4488 23.3603C14.8023 23.7098 14.806 24.2793 14.4566 24.6328L12.3336 26.7802L10.7056 25.1328L10.6441 25.0644C10.3576 24.7093 10.3812 24.1881 10.7125 23.8603C11.0659 23.511 11.6355 23.5139 11.9849 23.8672L12.3336 24.2197L13.1763 23.3672ZM24.7398 23.9209L24.8316 23.9248C25.2854 23.9709 25.6391 24.3544 25.6392 24.8203C25.6392 25.2863 25.2854 25.6697 24.8316 25.7158L24.7398 25.7207H16.7808C16.2839 25.7205 15.8814 25.3172 15.8814 24.8203C15.8815 24.3234 16.2839 23.921 16.7808 23.9209H24.7398ZM13.1763 18.8672C13.5258 18.5137 14.0953 18.5109 14.4488 18.8603C14.8023 19.2098 14.806 19.7793 14.4566 20.1328L12.3336 22.2802L10.7056 20.6328L10.6441 20.5644C10.3576 20.2093 10.3812 19.6881 10.7125 19.3603C11.0659 19.011 11.6355 19.0139 11.9849 19.3672L12.3336 19.7197L13.1763 18.8672ZM24.7398 19.6123L24.8316 19.6172C25.2854 19.6632 25.6392 20.0467 25.6392 20.5127C25.6392 20.9786 25.2854 21.3621 24.8316 21.4082L24.7398 21.4131H16.7808C16.2839 21.4129 15.8814 21.0096 15.8814 20.5127C15.8815 20.0157 16.2839 19.6124 16.7808 19.6123H24.7398ZM13.1763 14.3672C13.5258 14.0137 14.0953 14.0109 14.4488 14.3603C14.8023 14.7098 14.806 15.2793 14.4566 15.6328L12.3336 17.7802L10.7056 16.1328L10.6441 16.0644C10.3576 15.7093 10.3812 15.1881 10.7125 14.8603C11.0659 14.511 11.6355 14.5139 11.9849 14.8672L12.3336 15.2197L13.1763 14.3672ZM24.7388 15.3047C25.2359 15.3047 25.6392 15.708 25.6392 16.205C25.6392 16.6709 25.2853 17.0543 24.8316 17.1006L24.7388 17.1054H16.7808C16.2838 17.1054 15.8804 16.7021 15.8804 16.205C15.8804 15.708 16.2838 15.3047 16.7808 15.3047H24.7388ZM13.2447 9.80466C13.5965 9.51463 14.1175 9.53285 14.4488 9.86032C14.8023 10.2098 14.806 10.7793 14.4566 11.1328L12.3336 13.2802L10.7056 11.6328L10.6441 11.5644C10.3576 11.2093 10.3812 10.6881 10.7125 10.3603C11.0438 10.0328 11.5657 10.0144 11.9175 10.3047L11.9849 10.3672L12.3336 10.7197L13.1763 9.86716L13.2447 9.80466ZM24.7388 11.0996C25.2359 11.0996 25.6392 11.5029 25.6392 12C25.6392 12.4658 25.2853 12.8492 24.8316 12.8955L24.7388 12.9004H16.7808C16.2838 12.9004 15.8804 12.497 15.8804 12C15.8804 11.5029 16.2838 11.0996 16.7808 11.0996H24.7388Z" fill="#003B47"/>
</svg>
