<svg xmlns="http://www.w3.org/2000/svg" xmlns:xlink="http://www.w3.org/1999/xlink" aria-hidden="true" role="img" class="iconify iconify--logos" width="35.93" height="32" preserveAspectRatio="xMidYMid meet" viewBox="0 0 256 228"><path fill="#00D8FF" d="M210.483 73.824a171.49 171.49 0 0 0-8.24-2.597c.465-1.9.893-3.777 1.273-5.621c6.238-30.281 2.16-54.676-11.769-68.208c-13.355-13.077-35.196-18.147-61.313-13.894c-12.32 2.005-24.813 5.895-36.713 10.515a171.226 171.226 0 0 0-6.237-3.842C58.517-9.823 28.582-5.418 10.905 10.581C-5.22 25.355-9.42 51.725-4.692 83.104a170.974 170.974 0 0 0 4.343 22.579a171.125 171.125 0 0 0-5.007 3.082C-18.18 125.69-21.26 148.42-15.27 169.326c6.238 22.13 20.197 39.772 39.465 50.676a171.877 171.877 0 0 0 7.18 3.212a170.28 170.28 0 0 0-1.98 7.613c-6.238 30.282-2.16 54.676 11.769 68.208c13.356 13.077 35.197 18.147 61.313 13.894a170.75 170.75 0 0 0 36.713-10.515a171.488 171.488 0 0 0 6.238 3.842c26.115 8.19 56.05 3.785 73.727-12.214c16.125-14.774 20.325-41.144 15.597-72.523a170.92 170.92 0 0 0-4.343-22.579a171.108 171.108 0 0 0 5.007-3.082c18.18-16.36 21.26-39.09 15.27-59.996a60.809 60.809 0 0 0-3.244-7.88Zm-5.355 70.984c4.577 16.23 2.16 30.282-6.283 40.15c-8.443 9.867-22.402 14.937-39.465 14.033c-1.98-.08-4.012-.23-6.05-.428c-2.72-12.214-6.74-24.978-11.912-37.323c12.367-2.9 24.055-7.15 34.613-12.515c15.304-7.613 28.336-17.48 38.779-29.08a134.22 134.22 0 0 1-5.89 25.163Zm8.443-38.13c-10.443 11.6-23.475 21.467-38.779 29.08c-10.558 5.365-22.246 9.615-34.613 12.515c-6.74-15.326-14.937-30.282-24.38-44.338c9.443-14.056 17.64-29.012 24.38-44.338c12.367 2.9 24.055 7.15 34.613 12.515c15.304 7.613 28.336 17.48 38.779 29.08a134.562 134.562 0 0 1 5.89 25.163a134.22 134.22 0 0 1-5.89 25.163ZM125.29 223.18c-9.443-14.056-17.64-29.012-24.38-44.338c-6.283-14.29-11.455-28.808-15.304-43.326c3.849-14.518 9.021-29.036 15.304-43.326c6.74-15.326 14.937-30.282 24.38-44.338c9.443 14.056 17.64 29.012 24.38 44.338c6.283 14.29 11.455 28.808 15.304 43.326c-3.849 14.518-9.021 29.036-15.304 43.326c-6.74 15.326-14.937 30.282-24.38 44.338Zm-19.465 18.147c-17.063.904-31.022-4.166-39.465-14.033c-8.443-9.867-10.86-23.92-6.283-40.15a134.562 134.562 0 0 1 5.89-25.163c-10.443-11.6-23.475-21.467-38.779-29.08c-10.558-5.365-22.246-9.615-34.613-12.515c-2.038.198-4.07.348-6.05.428c-17.063.904-31.022-4.166-39.465-14.033c-8.443-9.867-10.86-23.92-6.283-40.15a134.22 134.22 0 0 1 5.89-25.163c-10.443-11.6-23.475-21.467-38.779-29.08C9.64 73.824 22.672 63.957 33.115 52.357a134.562 134.562 0 0 1-5.89-25.163c-4.577-16.23-2.16-30.282 6.283-40.15c8.443-9.867 22.402-14.937 39.465-14.033c1.98.08 4.012.23 6.05.428c2.72 12.214 6.74 24.978 11.912 37.323c-12.367 2.9-24.055 7.15-34.613 12.515c-15.304 7.613-28.336 17.48-38.779 29.08a134.22 134.22 0 0 1 5.89-25.163c4.577-16.23 2.16-30.282-6.283-40.15c-8.443-9.867-22.402-14.937-39.465-14.033c-17.063.904-31.022 4.166-39.465 14.033c-8.443 9.867-10.86 23.92-6.283 40.15a134.22 134.22 0 0 1-5.89 25.163c10.443 11.6 23.475 21.467 38.779 29.08c10.558 5.365 22.246 9.615 34.613 12.515c6.74 15.326 14.937 30.282 24.38 44.338c-9.443 14.056-17.64 29.012-24.38 44.338c-12.367-2.9-24.055-7.15-34.613-12.515c-15.304-7.613-28.336-17.48-38.779-29.08a134.562 134.562 0 0 1-5.89-25.163c-4.577-16.23-2.16-30.282 6.283-40.15c8.443-9.867 22.402-14.937 39.465-14.033c2.038-.198 4.07-.348 6.05-.428c2.72-12.214 6.74-24.978 11.912-37.323c12.367-2.9 24.055-7.15 34.613-12.515c15.304-7.613 28.336-17.48 38.779-29.08a134.22 134.22 0 0 1 5.89-25.163c4.577-16.23 2.16-30.282-6.283-40.15c-8.443-9.867-22.402-14.937-39.465-14.033c-17.063-.904-31.022 4.166-39.465 14.033c-8.443 9.867-10.86 23.92-6.283 40.15a134.22 134.22 0 0 1 5.89 25.163c10.443 11.6 23.475 21.467 38.779 29.08c10.558 5.365 22.246 9.615 34.613 12.515c3.849 14.518 9.021 29.036 15.304 43.326c6.74 15.326 14.937 30.282 24.38 44.338c-9.443 14.056-17.64 29.012-24.38 44.338c-12.367-2.9-24.055-7.15-34.613-12.515c-15.304-7.613-28.336-17.48-38.779-29.08a134.562 134.562 0 0 1-5.89-25.163c-4.577-16.23-2.16-30.282 6.283-40.15c8.443-9.867 22.402-14.937 39.465-14.033c1.98.08 4.012.23 6.05.428c2.72 12.214 6.74 24.978 11.912 37.323c-12.367 2.9-24.055 7.15-34.613 12.515c-15.304 7.613-28.336 17.48-38.779 29.08a134.22 134.22 0 0 1-5.89 25.163c-4.577 16.23-2.16 30.282 6.283 40.15c8.443 9.867 22.402 14.937 39.465 14.033c17.063-.904 31.022-4.166 39.465-14.033c8.443-9.867 10.86-23.92 6.283-40.15a134.562 134.562 0 0 1-5.89-25.163c10.443-11.6 23.475-21.467 38.779-29.08c10.558-5.365 22.246-9.615 34.613-12.515c6.74-15.326 14.937-30.282 24.38-44.338Zm19.465-18.147c9.443 14.056 17.64 29.012 24.38 44.338c6.283 14.29 11.455 28.808 15.304 43.326c-3.849 14.518-9.021 29.036-15.304 43.326c-6.74 15.326-14.937 30.282-24.38 44.338Zm75.348-18.147c4.577 16.23 2.16 30.282-6.283 40.15c-8.443 9.867-22.402 14.937-39.465 14.033c-1.98-.08-4.012-.23-6.05-.428c-2.72-12.214-6.74-24.978-11.912-37.323c12.367-2.9 24.055-7.15 34.613-12.515c15.304-7.613 28.336-17.48 38.779-29.08a134.22 134.22 0 0 1-5.89 25.163Z"></path></svg>
