<svg width="129" height="100" viewBox="0 0 129 100" fill="none" xmlns="http://www.w3.org/2000/svg">
<path d="M18.9085 49.6764C18.8377 51.9592 18.5367 52.4123 17.2266 52.4123V55.2876H17.7046C20.9623 55.2876 21.7414 53.6321 21.8653 49.9552L21.9892 45.8775H25.0345V55.2876H28.2214V43.0371H19.1033L18.9085 49.6764Z" fill="#BBC7D3"/>
<path d="M36.1712 46.7663H33.8695V43.0371H30.6826V55.2876H36.2066C39.6768 55.2876 40.9162 53.0745 40.9162 50.9834C40.9162 48.2823 39.1988 46.7663 36.1712 46.7663ZM35.9233 52.604H33.8695V49.4847H35.9233C37.021 49.4847 37.6938 49.9552 37.6938 50.9834C37.6938 52.0986 37.0564 52.604 35.9233 52.604Z" fill="#BBC7D3"/>
<path d="M51.2913 42.7572V38.209H48.1044V42.7572C44.4571 43.0534 41.9961 45.615 41.9961 49.1525C41.9961 52.7249 44.4571 55.2691 48.1044 55.5827V60.2006H51.2913V55.5827C54.9385 55.3039 57.3995 52.7249 57.3995 49.1525C57.3995 45.5802 54.9385 43.036 51.2913 42.7572ZM48.1044 52.6203C46.3338 52.3763 45.2361 51.0694 45.2361 49.1525C45.2361 47.2357 46.3338 45.9287 48.1044 45.6847V52.6203ZM51.2913 52.6203V45.7022C53.0618 45.9287 54.1772 47.2357 54.1772 49.1525C54.1772 51.0694 53.0618 52.3763 51.2913 52.6203Z" fill="#BBC7D3"/>
<path d="M69.3514 51.5219V47.4094C69.3514 44.4121 67.4038 42.5127 64.1284 42.5127C60.7467 42.5127 58.9585 44.5167 58.7992 46.6078H62.0215C62.1277 46.1547 62.6235 45.3706 64.1284 45.3706C65.3678 45.3706 66.1645 45.9282 66.1645 47.4094H62.9953C60.1625 47.4094 58.4805 48.8732 58.4805 51.3128C58.4805 53.857 60.3218 55.5996 62.9776 55.5996C64.9251 55.5996 66.0051 54.6935 66.4655 54.0139C66.8904 54.8329 67.8111 55.3034 69.0327 55.3034H70.1304V52.4629C69.5639 52.4629 69.3514 52.2016 69.3514 51.5219ZM66.1645 50.7203C66.1645 52.1319 65.1553 52.9334 63.8274 52.9334C62.6766 52.9334 61.7736 52.5152 61.7736 51.2954C61.7736 50.093 62.7651 49.9013 63.6327 49.9013H66.1822V50.7203H66.1645Z" fill="#BBC7D3"/>
<path d="M82.9821 44.7786H79.4234V41.3108H87.674V38.209H76.0771V55.3039H82.9821C86.8064 55.3039 89.0019 53.4393 89.0019 49.989C89.0019 46.7477 86.8241 44.7786 82.9821 44.7786ZM82.8405 52.2021H79.4411V47.7584H82.8405C84.611 47.7584 85.6025 48.56 85.6025 49.9715C85.6025 51.4353 84.611 52.2021 82.8405 52.2021Z" fill="#BBC7D3"/>
<path d="M101.202 51.5229V47.4104C101.202 44.4131 99.2544 42.5137 95.979 42.5137C92.5973 42.5137 90.8091 44.5177 90.6497 46.6088H93.8721C93.9783 46.1557 94.474 45.3715 95.979 45.3715C97.2183 45.3715 98.0151 45.9292 98.0151 47.4104H94.8459C92.013 47.4104 90.3311 48.8742 90.3311 51.3138C90.3311 53.858 92.1724 55.6006 94.8281 55.6006C96.7757 55.6006 97.8557 54.6945 98.3161 54.0148C98.741 54.8339 99.6616 55.3044 100.883 55.3044H101.981V52.4639C101.414 52.4639 101.202 52.2025 101.202 51.5229ZM98.0151 50.7213C98.0151 52.1328 97.0059 52.9344 95.678 52.9344C94.5272 52.9344 93.6242 52.5162 93.6242 51.2964C93.6242 50.094 94.6157 49.9023 95.4832 49.9023H98.0328V50.7213H98.0151Z" fill="#BBC7D3"/>
<path d="M17.0323 60.5146H0V63.9999H17.0323V60.5146Z" fill="#BBC7D3"/>
<path d="M11.614 40.5442C11.1182 39.1327 10.5694 38 8.6395 38C6.72735 38 6.14309 39.1153 5.62964 40.5442L0.353516 55.304H3.84142L5.06307 51.8014H11.791L12.9241 55.304H16.6422L11.614 40.5442ZM6.08997 48.8216L8.48016 41.8337H8.56868L10.8172 48.8216H6.08997Z" fill="#BBC7D3"/>
<path d="M124.573 43.0371L120.182 47.899V43.0371H116.995V55.305H120.182V50.1295L124.892 55.305H128.999L123.21 48.8748L128.574 43.0371H124.573Z" fill="#BBC7D3"/>
<path d="M111.365 47.6202H106.974V43.0371H103.787V55.305H106.974V50.4606H111.365V55.305H114.552V43.0371H111.365V47.6202Z" fill="#BBC7D3"/>
</svg>
