<svg width="180" height="100" viewBox="0 0 180 100" fill="none" xmlns="http://www.w3.org/2000/svg">
<path fill-rule="evenodd" clip-rule="evenodd" d="M0.648678 50.0109C0.648678 39.8819 8.88114 31.6445 19.0098 31.6445C29.1159 31.6445 37.3484 39.8815 37.3484 50.0109C37.3484 60.1199 29.1159 68.3526 19.0098 68.3526C8.88114 68.3526 0.648678 60.1199 0.648678 50.0109ZM0 50.0109C0 60.4771 8.52383 69 19.0098 69C29.4711 69 37.9935 60.4771 37.9935 50.0109C37.9935 39.5215 29.4714 31 19.0098 31C8.52383 31 0 39.5215 0 50.0109Z" fill="#BBC7D3"/>
<path fill-rule="evenodd" clip-rule="evenodd" d="M31.1013 48.0674C30.945 48.201 30.7891 48.3114 30.6343 48.4479C29.5839 49.2479 27.9102 49.8971 25.6137 50.5015C20.8404 51.7938 17.3784 51.9697 13.4508 52.9338C12.6713 53.133 11.8682 53.378 11.1339 53.6905C11.8682 54.0709 12.6713 54.4049 13.4748 54.7183C15.08 54.2508 15.842 54.0491 18.1589 53.6697C19.0517 53.5103 21.774 53.0205 23.7372 52.6228C27.287 51.8608 32.485 50.2091 31.1013 48.0674ZM28.8044 43.6033C28.0425 43.2705 27.1057 42.9337 26.1047 42.6683C25.6549 43.0255 25.1453 43.3361 24.383 43.6295C25.6359 43.8488 26.5731 44.206 27.6407 44.4979C27.8196 44.5879 28.6671 43.8093 28.8044 43.6033ZM11.4224 48.3576C16.0638 46.9955 20.9282 46.573 25.8592 45.2571C23.9404 44.7444 22.866 44.5194 20.8404 44.7663C17.8934 45.1235 14.6356 45.7451 11.8481 46.5727C10.7525 46.9084 5.01981 48.536 6.67304 50.8117C6.67268 50.835 7.65107 49.4528 11.4224 48.3576ZM8.23166 56.1665C8.20908 56.5921 8.47859 56.9708 9.03659 57.4401C9.10218 57.2148 9.21543 57.0392 9.37168 56.8157C8.99072 56.6122 8.61083 56.4133 8.23166 56.1665ZM10.3974 55.9687C10.7525 55.7437 11.1751 55.542 11.6438 55.3643C10.998 55.0727 10.3067 54.7864 9.63689 54.4729C9.32437 54.6736 9.03623 54.8738 8.81332 55.0727C9.34731 55.3865 9.86231 55.6756 10.3974 55.9687ZM28.2213 46.1055C27.2874 46.5516 25.9488 46.9958 24.0296 47.4662C22.4456 47.8668 18.6076 48.4246 14.4812 49.3163C13.1867 49.6069 9.63725 50.4313 7.89693 51.9041C8.38791 52.3093 8.70007 52.3964 9.2355 52.7088C9.9494 52.2395 10.9314 51.7938 12.3835 51.4119C14.9016 50.7455 16.8003 50.4563 19.0775 50.0787C21.3299 49.7387 25.5897 48.8484 27.9328 47.999C28.7152 47.7331 29.4276 47.3759 29.9398 46.9489C29.7828 46.7733 28.2661 46.0371 28.2213 46.1055ZM29.5839 45.2775C30.0509 45.5015 30.4781 45.658 30.878 45.9486C31.1665 45.3893 30.9877 45.0321 30.3885 44.5198C30.1419 44.8114 29.8724 45.0554 29.5839 45.2775ZM8.00982 53.6453C7.58405 53.4246 7.31706 53.2458 6.95939 53.0209C6.78056 53.4246 7.14109 53.8674 7.49625 54.0709C7.65107 53.914 7.85392 53.7804 8.00982 53.6453ZM27.7303 40.8396C27.6407 41.1521 27.3099 41.5311 27.0845 41.7779C27.7769 41.9567 28.4908 42.2208 29.1585 42.4676C29.0703 41.8432 28.3564 41.2405 27.7303 40.8396ZM5.91076 44.7853C10.7751 41.6182 16.153 39.7448 25.255 41.3305C25.7459 41.0385 26.0348 40.7483 26.1717 40.1686C23.8938 39.3439 21.4192 39.0533 18.2299 39.0966C15.3718 39.1866 10.2175 40.2557 7.45396 41.8879L8.29867 40.8393C10.2175 39.6978 15.2367 38.2049 19.0094 38.1368C21.6625 38.0716 23.0236 38.2257 26.1928 39.0737C25.9011 38.542 25.2553 38.2719 24.2956 37.8262C21.2407 36.4641 15.5506 36.329 10.8887 38.4041C11.4668 38.0032 12.0474 37.6446 12.8079 37.315C14.3443 36.5991 16.8673 35.9062 20.0118 35.9732C22.5352 36.018 25.5248 36.8883 27.3529 38.6961C27.6637 39.0737 27.8439 39.4528 27.9106 39.7448C29.3613 40.481 30.2075 41.1721 30.6759 41.9754C30.8784 42.3995 30.9454 42.8452 30.8547 43.3579C31.4568 43.7137 31.7489 44.0275 32.0628 44.4327C32.2603 44.7666 32.4166 45.1428 32.4632 45.4828C32.5284 45.9257 32.5728 46.4398 32.1044 47.0427C32.5954 47.2896 32.9957 47.9778 33.0437 48.2712C33.2878 49.3604 32.5732 50.432 31.66 51.2599C30.5874 52.195 28.2224 53.3121 26.3032 53.8044C22.5129 54.7617 19.1423 55.1655 16.4677 55.6563C17.6712 55.9454 19.2997 56.327 21.9553 56.327C27.6418 56.327 32.6621 53.6464 32.6621 53.6464C32.6621 53.6464 32.5524 53.9846 32.4391 54.297C28.8248 56.4825 23.0932 57.3957 20.6368 57.2843C18.16 57.1711 16.0645 56.7934 14.0117 56.1675C13.3863 56.3474 12.7616 56.5491 12.161 56.7934C15.285 58.2208 17.6486 58.5343 20.3042 58.7335C23.0244 58.9366 27.5336 58.2864 31.3235 56.9063C31.145 57.0865 31.0561 57.3523 30.8791 57.5093C28.9363 58.5343 24.8338 59.5614 22.7584 59.6499C20.7038 59.7399 18.2066 59.6499 16.0194 59.2476C14.1454 58.87 12.604 58.2864 10.9988 57.5763C10.7106 57.7955 10.5769 58.0671 10.5078 58.3792C16.7799 61.6584 22.6226 61.725 29.2961 59.6499L28.6904 60.2307C21.3507 63.2212 15.6176 62.0593 11.1762 59.9186C11.0213 59.8506 10.8429 59.7821 10.7106 59.6936C11.1349 60.4095 14.5231 62.8855 18.3163 63.1975C20.9289 63.4211 24.1182 62.974 26.0147 62.2177L24.9005 62.7956C23.9838 63.2427 21.5536 64.2709 18.16 64.047C13.6322 63.7335 11.0869 61.725 9.95011 60.6782C9.41325 60.1841 9.17063 59.6281 9.01294 58.937C7.98652 58.401 7.33964 57.8417 6.80564 56.9937C6.49313 56.5262 6.55872 55.9701 6.62573 55.4979L6.763 55.1003C6.27057 54.7402 5.75701 54.3611 5.55667 53.985C5.10869 53.1806 5.37927 52.4863 5.69035 51.9518C5.42084 51.6397 5.17535 51.3273 5.06712 51.0153C4.93344 50.6581 4.91086 50.2976 4.95243 49.8985C5.04167 49.2303 5.40042 48.6062 5.86918 48.0688C6.84901 46.9317 8.41443 46.0385 11.0661 45.1686C13.6788 44.2973 14.7277 44.1622 16.691 43.7148C18.9879 43.182 21.7324 43.0047 24.0307 42.2014C17.6249 41.0861 10.979 42.1115 5.55703 45.835L5.91076 44.7853Z" fill="#BBC7D3"/>
<path fill-rule="evenodd" clip-rule="evenodd" d="M61.9343 46.6856L62.6707 51.773H61.1963L61.9343 46.6856ZM56.2012 58.3108H60.1047L60.5957 55.431H63.2954L63.7642 58.3108H67.6677L64.3648 41.6641H59.5023L56.2012 58.3108Z" fill="#BBC7D3"/>
<path fill-rule="evenodd" clip-rule="evenodd" d="M71.37 48.1166C71.9932 48.1166 73.1329 47.7142 73.1329 46.4872C73.1329 45.038 71.8169 44.9462 71.4356 44.9462C70.9912 44.9462 70.1436 45.0143 69.3175 45.4167L69.2731 41.7992C70.5891 41.4649 71.5262 41.375 72.6405 41.375C75.8111 41.375 77.2163 43.5852 77.2163 45.7477C77.2163 47.8475 76.01 49.1169 74.8288 49.6091V49.7646C75.967 50.1247 77.4826 51.2156 77.4826 53.7597C77.4826 56.9078 75.2972 58.6465 72.4856 58.6465C70.9908 58.6261 70.0088 58.4258 68.8262 57.7781L68.8932 54.3175C69.987 54.7879 70.7227 54.8317 71.4596 54.8317C72.7096 54.8317 73.1985 53.9152 73.1985 53.2485C73.1985 52.3105 72.5978 51.686 71.2808 51.686H69.7193V48.1166H71.37Z" fill="#BBC7D3"/>
<path fill-rule="evenodd" clip-rule="evenodd" d="M79.291 41.6641H89.8214V58.3111H85.9613V45.681H83.1508V58.3111H79.291V41.6641Z" fill="#BBC7D3"/>
<path fill-rule="evenodd" clip-rule="evenodd" d="M95.8887 45.3234H96.8041C97.6757 45.3234 98.2333 45.8594 98.2333 47.2434C98.2333 49.0283 97.2951 49.1605 96.8041 49.1605H95.8887V45.3234ZM92.0293 58.3108H95.8887V52.8228H97.1843C100.998 52.8228 102.182 49.3855 102.182 47.1954C102.182 45.0547 100.819 41.6641 97.1843 41.6641H92.0293V58.3108Z" fill="#BBC7D3"/>
<path fill-rule="evenodd" clip-rule="evenodd" d="M109.322 54.4744C107.96 54.4744 107.271 52.8916 107.271 49.9681C107.271 47.0431 107.96 45.4603 109.322 45.4603C110.685 45.4603 111.374 47.0431 111.374 49.9681C111.374 52.8916 110.685 54.4744 109.322 54.4744ZM109.322 58.5143C113.897 58.5143 115.434 54.2286 115.434 49.9681C115.434 45.7075 113.897 41.4219 109.322 41.4219C104.749 41.4219 103.211 45.7075 103.211 49.9681C103.211 54.2286 104.75 58.5143 109.322 58.5143Z" fill="#BBC7D3"/>
<path fill-rule="evenodd" clip-rule="evenodd" d="M136.027 54.9639V51.1939H136.585C137.053 51.1939 138.259 51.2161 138.259 52.9336C138.259 54.6763 137.053 54.9639 136.585 54.9639H136.027ZM132.256 58.3113H136.852C137.855 58.3113 142.028 57.8857 142.05 52.8419C142.05 48.6075 138.816 47.8698 136.718 47.8698H136.027V45.6597H141.136V41.666H132.256V58.3113Z" fill="#BBC7D3"/>
<path fill-rule="evenodd" clip-rule="evenodd" d="M155.93 41.6641H159.7V47.6676H162.4V41.6641H166.168V58.3111H162.4V51.6398H159.7V58.3111H155.93V41.6641Z" fill="#BBC7D3"/>
<path fill-rule="evenodd" clip-rule="evenodd" d="M168.709 41.6641H172.503L172.48 47.6443H173.305L175.47 41.6641H179.575L176.629 49.5657L179.999 58.3111H175.558L173.374 51.6161H172.48L172.503 58.3111H168.709V41.6641Z" fill="#BBC7D3"/>
<path fill-rule="evenodd" clip-rule="evenodd" d="M48.7266 41.6641H56.6429V45.8146H52.6516V58.3111H48.7266V41.6641Z" fill="#BBC7D3"/>
<path fill-rule="evenodd" clip-rule="evenodd" d="M117.289 41.6641H120.569L123.466 45.5925L126.391 41.6641H129.648V58.3111H125.786V48.157L123.466 51.0583L121.147 48.157V58.3111H117.289V41.6641Z" fill="#BBC7D3"/>
<path fill-rule="evenodd" clip-rule="evenodd" d="M148.545 46.7319L149.258 51.7975H147.807L148.545 46.7319ZM142.789 58.3352H146.716L147.185 55.4572H149.883L150.352 58.3352H154.279L150.977 41.6914H146.112L142.789 58.3352Z" fill="#BBC7D3"/>
</svg>
