<svg width="141" height="100" viewBox="0 0 141 100" fill="none" xmlns="http://www.w3.org/2000/svg">
<path d="M16.1211 50.0899C16.1211 54.7706 12.7117 58 8.06057 58C3.4074 58 0 54.7706 0 50.0899C0 45.4092 3.40945 42.1798 8.06057 42.1798C12.7138 42.1798 16.1211 45.4092 16.1211 50.0899ZM47.5356 50.0899C47.5356 54.7706 44.1262 58 39.4751 58C34.8239 58 31.4145 54.7706 31.4145 50.0899C31.4145 45.4092 34.8239 42.1798 39.4751 42.1798C44.1262 42.1798 47.5356 45.4092 47.5356 50.0899ZM63.9354 48.3576V57.4857H60.0198V49.2008C60.0198 46.8147 58.9135 45.8298 57.0264 45.8298C55.045 45.8298 53.6169 46.9521 53.6169 50.1836V57.4857H49.7014V42.6462H53.5718V44.8929H53.6641C54.6312 43.2084 56.2908 42.1777 58.4094 42.1777C61.5852 42.1798 63.9354 43.958 63.9354 48.3576ZM122.958 42.6462V57.4857H119.043V51.4933H112.777V57.4857H108.861V42.6462H112.777V48.0285H119.043V42.6462H122.958ZM101.631 42.6462V44.7992H101.539C100.849 43.3021 99.0044 42.1777 96.6564 42.1777C92.8331 42.1777 89.6999 44.9866 89.6999 50.042C89.6999 55.1454 92.7407 58 96.6564 58C99.0515 58 100.756 56.8757 101.539 55.4722H101.631V57.4857H105.546V42.6462H101.631ZM80.9037 42.5067C78.5085 42.5067 76.6666 43.6311 75.6995 45.4092H75.6072C75.7445 42.1319 76.851 40.7286 80.6272 40.3538L86.4769 39.7916V36L79.9818 36.5143C73.6259 37.0286 71.7368 41.4302 71.7368 48.4512C71.7368 54.6769 75.2835 58 79.8895 58C84.4505 58 87.9501 54.6769 87.9501 50.042C87.9501 45.4092 84.7722 42.5067 80.9037 42.5067ZM17.5492 42.6462V46.0172H25.241L17.3648 54.3021V57.4857H30.4474V54.1147H22.2024L30.0786 45.782V42.6462H17.5492ZM97.6704 54.3958C95.3197 54.3958 93.8018 52.6176 93.8018 50.1358C93.8018 47.608 95.3224 45.782 97.6704 45.782C100.018 45.782 101.631 47.5601 101.631 50.0878C101.631 52.5697 100.018 54.3958 97.6704 54.3958ZM4.09995 50.0899C4.09995 52.6634 5.66535 54.35 8.06057 54.35C10.4558 54.35 12.0212 52.6656 12.0212 50.0899C12.0212 47.5142 10.4558 45.8298 8.06057 45.8298C5.66535 45.8298 4.09995 47.5142 4.09995 50.0899ZM35.5145 50.0899C35.5145 52.6634 37.0799 54.35 39.4751 54.35C41.8703 54.35 43.4357 52.6656 43.4357 50.0899C43.4357 47.5142 41.8703 45.8298 39.4751 45.8298C37.0799 45.8298 35.5145 47.5142 35.5145 50.0899ZM79.8424 54.3958C77.5865 54.3958 75.8347 52.6634 75.8347 50.0899C75.8347 47.4684 77.5845 45.9235 79.8424 45.9235C82.1004 45.9235 83.8502 47.4684 83.8502 50.0899C83.8502 52.6634 82.1004 54.3958 79.8424 54.3958ZM135.487 57.4857L130.192 50.371V57.4857H126.276V42.6462H130.192V48.7781L135.074 42.6462H139.912L133.922 49.3862L140.463 57.4836H135.487V57.4857Z" fill="#BBC7D3"/>
</svg>
