<svg width="92" height="100" viewBox="0 0 92 100" fill="none" xmlns="http://www.w3.org/2000/svg">
<path d="M9.38281 43.9046C11.0567 42.2307 18.9179 34.5 18.9179 34.5L28.0146 34.5151C28.0146 40.7333 28.0146 46.9516 28.0146 53.1698C24.9305 56.2548 21.9891 59.6779 18.6401 62.4687C18.6401 56.1331 18.6401 50.2013 18.6401 43.9046C18.6401 43.9046 10.4093 43.9046 9.38281 43.9046Z" fill="#BBC7D3"/>
<path d="M18.6471 52.9402C10.5324 61.1293 9.39079 62.5 9.39079 62.5C9.11004 62.5 8.08378 62.5 7.0433 62.5C4.90541 62.5 2.16298 62.4846 0.000821362 62.5C0.00281485 56.2137 0.0144573 49.8964 0 43.61C2.99166 40.634 6.30695 37.3031 9.39079 34.5C9.39079 36.6023 9.39079 52.9402 9.39079 52.9402C10.299 52.9402 18.6471 52.9402 18.6471 52.9402Z" fill="#BBC7D3"/>
<path d="M37.2656 39.1484H54.5475V57.8202H49.6208C49.6208 57.8202 49.6517 59.2562 49.6517 43.3801H42.2077L42.2386 57.8357C41.0031 57.7894 37.2811 57.8357 37.2811 57.8357L37.2656 39.1484Z" fill="#BBC7D3"/>
<path d="M71.1066 51.272C72.0487 52.2141 74.1421 54.2853 74.1421 54.2853C74.1421 54.2853 73.9483 54.4844 73.8093 54.6388C71.6935 57.1407 69.0217 58.3763 65.7321 58.2527C61.5931 58.0828 58.0564 55.272 56.9135 51.2875C55.7244 47.1176 57.207 42.6851 60.6047 40.3685C64.5274 37.6813 70.1182 38.299 73.346 41.7585C73.6703 42.1137 73.8093 42.2214 73.8093 42.2214L70.7505 45.1405C70.7505 45.1405 70.6587 45.1407 70.3498 44.8319C68.9599 43.4264 67.2765 42.9014 65.3305 43.2411C63.2301 43.6118 61.8711 45.2025 61.4695 47.6581C61.068 50.1292 62.2881 52.5384 64.373 53.4187C66.6124 54.3608 69.1607 53.7122 70.6742 51.8125C70.8132 51.6427 70.9522 51.4882 71.1066 51.272Z" fill="#BBC7D3"/>
<path d="M89.9932 43.4111L80.6338 43.3955V46.1758C80.6338 46.1758 84.4024 46.0829 85.9932 46.2373C87.5993 46.3917 89.1281 46.84 90.2246 48.1064C91.7997 49.8978 91.9235 52.0285 91.2441 54.1904C90.58 56.3063 88.8966 57.2947 86.8271 57.6963C86.1168 57.8353 85.4066 57.8516 84.6963 57.8516C81.917 57.8516 75.7567 57.8662 75.7539 57.8662V39.1484H89.9932V43.4111ZM85.2354 50.2373C84.4786 50.0365 83.7063 50.1752 83.0576 50.1289H80.6484V53.8359C80.6484 53.8359 83.7677 53.99 85.2041 53.7275C86.1616 53.5577 86.6719 52.9092 86.6719 51.998C86.6719 51.0714 86.1929 50.4844 85.2354 50.2373Z" fill="#BBC7D3"/>
</svg>
