<svg width="102" height="100" viewBox="0 0 102 100" fill="none" xmlns="http://www.w3.org/2000/svg">
<path d="M27.933 39.7109H36.3352C38.5244 39.7109 40.262 40.2334 41.5502 41.2828C42.8362 42.3299 43.4791 43.5888 43.4791 45.6647C43.4791 47.706 42.8408 49.1743 41.5618 50.2214C40.2851 51.2686 38.3862 51.7933 36.3236 51.7933H32.1732V58.3293H27.9307V39.7109H27.933ZM32.1755 43.285V48.2031H35.4456C37.6718 48.2031 38.8609 47.5794 38.8609 45.7199C38.8609 43.842 37.681 43.285 35.4733 43.285H32.1755Z" fill="#BBC7D3"/>
<path d="M63.0269 51.3072C62.808 53.749 61.9023 54.8514 60.4067 56.2921C58.9111 57.7327 57.0859 58.6027 54.4772 58.6027C51.6496 58.6027 49.3728 57.9744 47.649 56.1056C45.9252 54.2392 44.9873 51.7652 44.9873 48.6859C44.9873 45.77 45.8584 43.922 47.6006 41.9911C49.3405 40.058 51.7395 39.3975 54.6408 39.3975C56.9569 39.3975 58.7475 40.1293 60.3168 41.4411C61.8862 42.7529 62.7527 44.5733 62.9163 46.5962H58.8811C58.6622 45.5215 58.1736 44.6124 57.4178 44.0187C56.6596 43.4272 55.7055 42.8242 54.5556 42.8242C53.3688 42.8242 52.3709 43.158 51.5597 43.8231C50.7462 44.4882 50.2531 45.2269 49.9258 46.1935C49.5733 47.2291 49.5087 47.9449 49.5087 49.0173C49.5087 50.8193 49.8198 52.0115 50.7532 53.2059C51.6842 54.4003 52.9332 54.9964 54.5026 54.9964C56.6273 54.9964 58.5239 53.6155 58.812 51.3095H63.0269V51.3072Z" fill="#BBC7D3"/>
<path d="M81.8792 39.7109L77.0605 48.4885L82.5429 58.2948H77.7311L73.7881 50.9349L73.0092 50.9142L69.0339 58.2948H64.2383L69.7483 48.4885L64.8467 39.7109H69.6769L73.2396 46.3597H73.6245L77.1734 39.7109H81.8792Z" fill="#BBC7D3"/>
<path d="M89.5524 46.6796H94.1084C96.1709 46.6796 97.8393 46.8223 99.1183 47.8694C100.395 48.9165 101.033 50.0051 101.033 52.0465C101.033 54.1246 100.39 55.685 99.1022 56.7344C97.8163 57.7816 96.0787 58.3063 93.8894 58.2948H85.2314V39.7109H99.6829V43.285H89.5524V46.6796ZM96.4543 51.9935C96.4543 50.9464 95.4565 49.8141 93.841 49.8141H89.5524V54.578H93.8687C95.6685 54.578 96.4543 53.2593 96.4543 51.9935Z" fill="#BBC7D3"/>
<path d="M20.3852 39.7109H12.9463V58.2971H20.3852V39.7109Z" fill="#BBC7D3"/>
<path d="M11.0156 39.7109H5.50781V58.2971H11.0156V39.7109Z" fill="#BBC7D3"/>
<path d="M3.71946 39.7109H0V58.2948H3.71946V39.7109Z" fill="#BBC7D3"/>
<path d="M22.4809 41.547C22.2158 41.547 21.99 41.4596 21.8033 41.2801C21.6144 41.096 21.5176 40.8704 21.5176 40.5988C21.5176 40.3296 21.6121 40.1063 21.801 39.9245C21.99 39.745 22.2158 39.6553 22.4809 39.6553C22.7413 39.6553 22.9671 39.7473 23.1561 39.9268C23.345 40.1086 23.4372 40.3319 23.4372 40.5988C23.4372 40.8704 23.345 41.0983 23.1584 41.2778C22.9717 41.4573 22.7459 41.547 22.4809 41.547ZM21.7089 40.5988C21.7089 40.8244 21.7826 41.0131 21.9301 41.1627C22.0776 41.3146 22.2619 41.3882 22.4809 41.3882C22.6975 41.3882 22.8795 41.3146 23.027 41.1627C23.1722 41.0131 23.246 40.8244 23.246 40.5965C23.246 40.3756 23.1722 40.1892 23.0247 40.0373C22.8772 39.8877 22.6952 39.8118 22.4786 39.8118C22.2619 39.8118 22.0776 39.8877 21.9301 40.0373C21.7826 40.1892 21.7089 40.3756 21.7089 40.5988ZM22.8081 40.7761H22.9786C22.9556 40.9026 22.9003 40.9993 22.8173 41.0729C22.732 41.1443 22.6307 41.1811 22.5131 41.1811C22.3449 41.1811 22.2112 41.1259 22.1075 41.0131C22.0038 40.9026 21.9531 40.7622 21.9531 40.5942C21.9531 40.4239 22.0015 40.2859 22.1006 40.1777C22.1974 40.0695 22.3334 40.0166 22.5016 40.0166C22.626 40.0166 22.732 40.0511 22.8196 40.1202C22.9072 40.1915 22.9602 40.2859 22.9763 40.4124H22.8081C22.7943 40.3411 22.7574 40.2859 22.7044 40.2444C22.6491 40.203 22.5823 40.18 22.5039 40.18C22.3887 40.18 22.3011 40.2191 22.2389 40.2951C22.1767 40.371 22.1444 40.4723 22.1444 40.5919C22.1444 40.7116 22.1767 40.8106 22.2435 40.8911C22.3103 40.9717 22.4002 41.0131 22.5108 41.0131C22.5892 41.0131 22.656 40.9924 22.709 40.9487C22.7643 40.9072 22.7966 40.8497 22.8081 40.7761Z" fill="#BBC7D3"/>
</svg>
