<svg width="107" height="100" viewBox="0 0 107 100" fill="none" xmlns="http://www.w3.org/2000/svg">
<path d="M53.2778 47.5982C52.5412 47.3158 51.5779 47.2311 50.5295 47.2311H44.6925V45.4234H54.723V42.3164H40.584V55.7613H50.1611C51.4929 55.7613 52.4844 55.6483 53.2213 55.3657C54.7797 54.7725 55.828 53.3321 55.828 51.4396C55.828 49.5191 54.8363 48.1914 53.2778 47.5982ZM51.2378 52.2588C51.0112 52.3436 50.6994 52.3717 50.3026 52.3717H44.6925V50.2251H50.3026C50.7562 50.2251 51.1243 50.2535 51.4078 50.3946C51.7478 50.5641 51.9178 50.8749 51.9178 51.2701C51.9178 51.6655 51.7195 52.0892 51.2378 52.2588Z" fill="#BBC7D3"/>
<path d="M67.3475 42.3164H61.3407L55.8154 55.7613H60.4624L61.2274 53.8123H67.4608L68.2543 55.7613H72.8729L67.3475 42.3164ZM62.2473 50.8464L64.2026 45.4234H64.5141L66.4692 50.8464H62.2473Z" fill="#BBC7D3"/>
<path d="M78.1611 50.7619V55.7613H74.0527V42.3164H78.1611V47.2311H84.763V42.3164H88.8716V55.7613H84.763V50.7619H78.1611Z" fill="#BBC7D3"/>
<path d="M95.3742 50.6772V55.7613H91.2656V42.3164H95.3742V47.3724H96.5076L101.466 42.3164H106.623L100.049 48.7564L106.878 55.7613H101.409L96.5076 50.6772H95.3742Z" fill="#BBC7D3"/>
<path d="M32.876 50.0947C32.876 54.3043 30.6236 58.1947 26.9668 60.2998L16.499 66.3252L6.03223 60.2998C2.37517 58.1947 0.12207 54.3044 0.12207 50.0947V33.6738H32.876V50.0947ZM9.1123 47.4238C9.81297 46.6353 11.0867 46.1016 12.543 46.1016H14.126V52.0391C14.1259 53.6185 13.6954 55.0013 13.0566 55.7617H19.9414C19.304 55.0005 18.8741 53.6195 18.874 52.042V46.1016H20.457C21.9134 46.1016 23.1871 46.6352 23.8877 47.4238V42.3164H9.1123V47.4238Z" fill="#BBC7D3"/>
</svg>
