<svg width="137" height="42" viewBox="0 0 137 42" fill="none" xmlns="http://www.w3.org/2000/svg">
<g clip-path="url(#clip0_2673_85280)">
<path fill-rule="evenodd" clip-rule="evenodd" d="M43.2803 35.0387H38.3048L40.619 30.9779L34.9492 21H40.0404L42.9332 26.9171L45.8259 21H50.8014L43.2803 35.0387Z" fill="#BBC7D3"/>
<path fill-rule="evenodd" clip-rule="evenodd" d="M105.877 35.0387H99.6287C96.1574 35.0387 93.4961 32.2541 93.4961 28.1934C93.4961 23.6685 96.1574 21 99.6287 21H105.877V24.4807H101.827C99.3973 24.4807 98.0087 25.1768 98.0087 28.0773C98.0087 30.8619 99.3973 31.442 101.827 31.442H105.877V35.0387Z" fill="#BBC7D3"/>
<path fill-rule="evenodd" clip-rule="evenodd" d="M122.078 35.0387H117.566V25.1768L112.243 35.0387H106.805V21H111.317V30.5138L116.64 21H122.078V35.0387Z" fill="#BBC7D3"/>
<path fill-rule="evenodd" clip-rule="evenodd" d="M63.0645 35.0387L68.9656 21H74.0569L78.9166 32.6022L83.7765 21H88.8677L94.7689 35.0387H89.909L86.3221 24.9448L82.7351 35.0387H79.8423H77.8753H75.0982L74.0569 32.1381H68.9656L67.8085 35.0387H63.0645Z" fill="#BBC7D3"/>
<path fill-rule="evenodd" clip-rule="evenodd" d="M71.512 24.9434L70.0078 28.8881H72.9006L71.512 24.9434Z" fill="white"/>
<path fill-rule="evenodd" clip-rule="evenodd" d="M55.6611 35.0387H51.1484V21H60.5209C65.265 21 65.265 24.9448 65.265 25.7569C65.265 26.6851 65.265 30.8619 60.5209 30.8619H55.6611V35.0387Z" fill="#BBC7D3"/>
<path fill-rule="evenodd" clip-rule="evenodd" d="M55.6602 27.4951H58.9C59.3629 27.4951 60.7514 27.4951 60.7514 25.9868C60.7514 24.4785 59.4786 24.4785 58.9 24.4785H55.6602V27.4951Z" fill="white"/>
<path fill-rule="evenodd" clip-rule="evenodd" d="M136.31 21V24.4807H127.517V26.337H132.145C137.005 26.337 137.005 29.1215 137.005 30.6298C137.005 32.2541 137.005 35.0387 132.261 35.0387H123.004V21H136.31Z" fill="#BBC7D3"/>
<path fill-rule="evenodd" clip-rule="evenodd" d="M127.633 29.584V31.7884H131.451C132.493 31.7884 132.493 30.9763 132.493 30.6282C132.493 30.3961 132.493 29.584 131.451 29.584H127.633Z" fill="white"/>
<path fill-rule="evenodd" clip-rule="evenodd" d="M14.5833 14.0387C14.9304 14.0387 15.2775 14.0387 15.6247 14.1547L15.509 4.64088H16.6661C16.6661 4.64088 16.5504 7.30939 17.0132 14.3867C23.2615 15.779 28.0056 21.232 28.0056 27.9613C28.0056 32.9503 25.3443 37.2431 21.5259 39.6796C21.4102 39.5635 21.2944 39.3315 21.1787 39.2155C17.0132 33.8785 15.9718 25.989 15.7404 19.1436C16.3189 19.2597 16.8975 19.3757 17.476 19.3757C18.6331 26.9171 22.1044 31.9061 24.9971 35.0387C26.2699 33.2983 27.0799 31.326 27.0799 29.1215C27.0799 26.5691 26.0385 24.3646 24.4186 22.5083C22.7987 20.6519 20.4845 19.2597 17.7074 18.5635C16.5504 18.3315 15.2776 18.0994 14.0047 18.0994C12.7319 18.0994 11.5748 18.2155 10.302 18.5635C4.8637 19.9558 0.929582 24.1326 0.929582 29.1215C0.929582 31.326 1.73955 33.2983 3.01235 35.0387C5.78938 32.0221 9.26066 27.0331 10.4178 19.4917C10.9963 19.3757 11.5748 19.3757 12.2691 19.2597C11.922 26.105 10.9963 33.9945 6.83076 39.3315V39.2155C6.71505 39.4475 6.48363 39.6796 6.36792 39.7956C2.4338 37.2431 0.00390625 32.9503 0.00390625 27.9613C0.00390625 21.232 4.63228 15.779 10.9963 14.3867C11.3434 7.30939 11.3434 4.64088 11.3434 4.64088H12.5005L12.3848 14.1547C12.7319 14.0387 13.0791 14.0387 13.3105 14.0387V0H14.5833V14.0387ZM14.699 19.1436C14.8147 25.7569 15.2776 33.9945 17.476 39.5635C17.7074 40.1436 18.0546 40.8398 18.4017 41.4199C17.0132 41.768 15.509 42.116 14.1205 42.116C12.6162 42.116 11.112 41.884 9.83921 41.4199C10.1863 40.7238 10.5335 40.0276 10.7649 39.3315C12.8477 33.7624 13.4262 25.6409 13.4262 19.0276C13.5419 19.0276 13.889 19.0276 14.1205 19.0276C14.2362 19.1436 14.4676 19.1436 14.699 19.1436Z" fill="#BBC7D3"/>
</g>
<defs>
<clipPath id="clip0_2673_85280">
<rect width="137" height="42" fill="white"/>
</clipPath>
</defs>
</svg>
