<svg width="68" height="100" viewBox="0 0 68 100" fill="none" xmlns="http://www.w3.org/2000/svg">
<path fill-rule="evenodd" clip-rule="evenodd" d="M5.66143 31L4.47556 34.2702H20.9091L22.095 31H5.66143ZM3.88225 35.9046L2.69638 39.174H19.1299L20.3158 35.9046H3.88225ZM2.10677 40.8091L0.920898 44.0786H17.3545L18.5396 40.8091H2.10677Z" fill="#BBC7D3"/>
<path fill-rule="evenodd" clip-rule="evenodd" d="M32.3758 45.3251V45.3941C33.1269 45.6717 33.8443 46.1569 34.2201 46.4686C35.3814 47.4391 35.8941 48.7213 35.8941 50.3848C35.8941 53.1236 34.4593 55.0988 32.1023 55.7228C31.385 55.9306 30.6339 56.0003 29.2328 56.0003H22.0947V35.9678H28.4138C29.7118 35.9678 30.5996 36.0368 31.385 36.2445C33.6739 36.8686 35.1767 38.4631 35.1767 40.9926C35.1767 42.3445 34.6984 43.4887 33.913 44.2507C33.5715 44.5972 33.0932 45.0135 32.3758 45.3251ZM26.0568 47.4391V52.7073H28.7896C29.6087 52.7073 30.3604 52.6383 30.9074 52.1182C31.4537 51.598 31.6928 50.9399 31.6928 50.0732C31.6928 49.4151 31.5217 48.791 31.1802 48.3406C30.5996 47.6127 29.8822 47.4391 28.6529 47.4391H26.0568ZM26.0224 43.9732H28.2426C28.9256 43.9732 29.2672 43.9732 29.6087 43.8693C30.5316 43.5918 31.1122 42.7608 31.1122 41.6166C31.1122 40.2654 30.4972 39.6755 29.6087 39.3988C29.2328 39.2949 28.8576 39.26 28.1059 39.26H26.0224V43.9732ZM41.8372 56.0003V39.329H36.1332V35.9678H51.9823L50.8554 39.329H45.7993V56.0003H41.8372ZM53.2116 56.0003V35.9678H66.0552L64.9283 39.329H57.1401V43.7655H60.3168C62.8785 43.7655 64.2109 44.3895 65.133 45.1864C65.8504 45.8104 67.0797 47.1965 67.0797 49.9352C67.0797 52.6383 65.816 54.1282 64.7571 54.891C63.5278 55.7569 62.2298 56.0003 59.5994 56.0003H53.2116ZM57.1401 52.6383H60.112C61.2389 52.6383 61.9219 52.3608 62.4002 51.7368C62.6393 51.4251 62.9808 50.8701 62.9808 49.8306C62.9808 48.791 62.6393 48.0631 61.9563 47.543C61.5468 47.2313 60.9998 47.0585 60.0776 47.0585H57.1401V52.6383Z" fill="#BBC7D3"/>
</svg>
